# xmcd
#
# Track frame offsets:
#	150
#	8587
#	20799
#	30812
#	40950
#	49096
#	59411
#	70709
#	81720
#	91580
#	105292
#	115515
#	129387
#	139976
#	150509
#	161231
#
# Disc length: 2323 seconds
#
# Revision: 1
# Processed by: cddbd v1.5.1PL0 Copyright (c) Steve Scherf et al.
# Submitted via: audiograbber 1.83.01
#
DISCID=c2091110
DTITLE=Dean Reed - Blue Album
DYEAR=1900
DGENRE=Country
TTITLE0=Battle Of Jericho
TTITLE1=Veras, Veras
TTITLE2=Keep Searching
TTITLE3=Rosas Rojas Para Una Dama Triste
TTITLE4=Don't Let Her Go
TTITLE5=When You Are By My Side
TTITLE6=La Bamba
TTITLE7=I Want You To Know
TTITLE8=Elisabeth
TTITLE9=Con El
TTITLE10=Girl Happy
TTITLE11=Maria
TTITLE12=I Can't Help Myself
TTITLE13=Our Love Will Always Be
TTITLE14=Hawa Nagila
TTITLE15=The War Keeps On
EXTD=
EXTT0=
EXTT1=
EXTT2=
EXTT3=
EXTT4=
EXTT5=
EXTT6=
EXTT7=
EXTT8=
EXTT9=
EXTT10=
EXTT11=
EXTT12=
EXTT13=
EXTT14=
EXTT15=
PLAYORDER=
